<svg xmlns="http://www.w3.org/2000/svg" xmlns:xlink="http://www.w3.org/1999/xlink" width="1366" height="767" viewBox="0 0 1366 767">
  <defs>
    <style>
      .cls-1, .cls-7 {
        fill: #fff;
      }

      .cls-1 {
        stroke: #707070;
      }

      .cls-2 {
        clip-path: url(#clip-Web_1366_26);
      }

      .cls-3 {
        clip-path: url(#clip-path);
      }

      .cls-4 {
        fill: #171717;
        font-size: 80px;
        font-family: DINPro-Bold, DINPro;
        font-weight: 700;
      }

      .cls-5 {
        fill: #d80028;
      }

      .cls-6 {
        fill: none;
        stroke: #d80028;
        stroke-miterlimit: 10;
        stroke-width: 2.448px;
      }
    </style>
    <clipPath id="clip-path">
      <rect id="Rectangle_6" data-name="Rectangle 6" class="cls-1" width="51" height="447" transform="translate(48 150)"/>
    </clipPath>
    <clipPath id="clip-Web_1366_26">
      <rect width="1366" height="767"/>
    </clipPath>
  </defs>
  <g id="Web_1366_26" data-name="Web 1366 – 26" class="cls-2">
    <rect class="cls-7" width="1366" height="767"/>
    <g id="Mask_Group_1" data-name="Mask Group 1" class="cls-3">
      <text id="Beirão_o_melhor_anfitrião." data-name="Beirão, 
o melhor anfitrião." class="cls-4" transform="translate(116 207)"><tspan x="0" y="83">Beirão, </tspan><tspan x="0" y="186">o melhor </tspan><tspan x="0" y="289">anfitrião.</tspan></text>
    </g>
    <g id="Group_1520" data-name="Group 1520" transform="translate(-1011.804 1.133)">
      <g id="Group_1526" data-name="Group 1526" transform="translate(2277.525 28.481)">
        <g id="Group_1525" data-name="Group 1525">
          <g id="Group_1524" data-name="Group 1524">
            <g id="Group_1523" data-name="Group 1523">
              <path id="Path_672" data-name="Path 672" class="cls-5" d="M1798.794,40.781c3.576,4.792-2.786,15.508-12.809,18.007a21.378,21.378,0,0,1-20.32-5.13,18.612,18.612,0,0,1-5.343-7.578,5.111,5.111,0,0,1,1.979-6.364,3.215,3.215,0,0,1,.272-.181c.043-.043.081-.006.009.008-.06.074-.15.133-.324.307-2.249,1.874-2.04,3.63-1.3,5.113,1.291,2.5,5.814,4.465,9.041,3.863,1.713-.3,6.94-.231,4.577-12.416-1.2-6.259,11.915-6.569,11.272,4.066-.369,6.341-6.852,9.992-6.852,9.992a11.114,11.114,0,0,0,7.1-6.02c3.3-9.105,9.354-8.129,12.7-3.667" transform="translate(-1758.026 -28.481)"/>
              <path id="Path_673" data-name="Path 673" class="cls-5" d="M1809.935,52.012c4.447,3.394,5.388,9.463-3.767,12.682a11.03,11.03,0,0,0-6.058,7.051s3.693-6.487,10.012-6.791c10.647-.561,10.244,12.562,4.023,11.309-12.2-2.445-12.164,2.779-12.463,4.5-.629,3.2,1.3,7.745,3.786,9.054,1.468.756,3.266,1,5.126-1.252.18-.2.231-.3.294-.351.036-.046.055-.026.028.013a2.5,2.5,0,0,1-.185.285,5.1,5.1,0,0,1-6.372,1.917,18.55,18.55,0,0,1-7.549-5.371,21.446,21.446,0,0,1-4.975-20.386c2.572-10,13.327-16.288,18.1-12.659" transform="translate(-1758.026 -28.481)"/>
              <path id="Path_674" data-name="Path 674" class="cls-5" d="M1815.784,86.235a4.39,4.39,0,1,0,6.207.011A4.392,4.392,0,0,0,1815.784,86.235Z" transform="translate(-1758.026 -28.481)"/>
              <path id="Path_675" data-name="Path 675" class="cls-5" d="M1759.311,29.763a4.395,4.395,0,1,0,6.206.007A4.4,4.4,0,0,0,1759.311,29.763Z" transform="translate(-1758.026 -28.481)"/>
            </g>
          </g>
        </g>
      </g>
      <g id="Group_1530" data-name="Group 1530" transform="translate(1043.251 28.48)">
        <g id="Group_1529" data-name="Group 1529">
          <g id="Group_1528" data-name="Group 1528">
            <g id="Group_1527" data-name="Group 1527">
              <path id="Path_676" data-name="Path 676" class="cls-5" d="M1055.552,52.964c4.792-3.576,15.508,2.785,18.007,12.809a21.385,21.385,0,0,1-5.129,20.32,18.616,18.616,0,0,1-7.58,5.342,5.109,5.109,0,0,1-6.363-1.978c-.1-.109-.141-.231-.182-.272s-.005-.081.009-.009c.075.059.133.15.307.324,1.874,2.249,3.631,2.04,5.112,1.3,2.5-1.291,4.464-5.814,3.865-9.04-.3-1.714-.231-6.942-12.417-4.579-6.259,1.205-6.57-11.915,4.066-11.27,6.341.368,9.993,6.852,9.993,6.852a11.116,11.116,0,0,0-6.021-7.1c-9.1-3.3-8.129-9.355-3.667-12.706" transform="translate(-1043.251 -28.48)"/>
              <path id="Path_677" data-name="Path 677" class="cls-5" d="M1066.783,41.824c3.393-4.447,9.462-5.389,12.681,3.766a11.029,11.029,0,0,0,7.052,6.058s-6.487-3.693-6.791-10.012c-.562-10.646,12.561-10.244,11.308-4.023-2.443,12.2,2.778,12.164,4.5,12.464,3.2.628,7.747-1.3,9.055-3.787.756-1.469,1-3.266-1.253-5.125-.2-.182-.3-.232-.35-.3-.044-.035-.027-.055.012-.027a2.321,2.321,0,0,1,.285.184A5.094,5.094,0,0,1,1105.2,47.4a18.563,18.563,0,0,1-5.372,7.55,21.441,21.441,0,0,1-20.385,4.974c-10-2.572-16.29-13.327-12.659-18.1" transform="translate(-1043.251 -28.48)"/>
              <path id="Path_678" data-name="Path 678" class="cls-5" d="M1101.006,35.974a4.39,4.39,0,1,0,.011-6.207A4.391,4.391,0,0,0,1101.006,35.974Z" transform="translate(-1043.251 -28.48)"/>
              <path id="Path_679" data-name="Path 679" class="cls-5" d="M1044.533,92.447a4.4,4.4,0,1,0,.008-6.205A4.4,4.4,0,0,0,1044.533,92.447Z" transform="translate(-1043.251 -28.48)"/>
            </g>
          </g>
        </g>
      </g>
      <g id="Group_1534" data-name="Group 1534" transform="translate(1043.251 671.655)">
        <g id="Group_1533" data-name="Group 1533">
          <g id="Group_1532" data-name="Group 1532">
            <g id="Group_1531" data-name="Group 1531">
              <path id="Path_680" data-name="Path 680" class="cls-5" d="M1067.734,1151.383c-3.574-4.792,2.788-15.509,12.81-18.007a21.376,21.376,0,0,1,20.319,5.13,18.589,18.589,0,0,1,5.344,7.578,5.11,5.11,0,0,1-1.979,6.363,2.829,2.829,0,0,1-.273.182c-.042.043-.08.006-.008-.008.059-.074.149-.134.325-.306,2.248-1.875,2.038-3.632,1.3-5.114-1.293-2.5-5.815-4.465-9.042-3.863-1.713.3-6.94.23-4.577,12.416,1.2,6.26-11.915,6.569-11.272-4.066.37-6.341,6.852-9.993,6.852-9.993a11.118,11.118,0,0,0-7.1,6.021c-3.3,9.1-9.354,8.129-12.706,3.667" transform="translate(-1043.251 -1098.431)"/>
              <path id="Path_681" data-name="Path 681" class="cls-5" d="M1056.594,1140.152c-4.447-3.393-5.388-9.462,3.767-12.681a11.03,11.03,0,0,0,6.058-7.051s-3.692,6.485-10.012,6.79c-10.645.561-10.245-12.562-4.022-11.309,12.195,2.445,12.162-2.778,12.463-4.5.629-3.2-1.3-7.746-3.788-9.054-1.468-.756-3.265-1-5.125,1.253-.181.2-.231.3-.294.35-.036.045-.055.026-.028-.012a2.274,2.274,0,0,1,.185-.286,5.1,5.1,0,0,1,6.372-1.918,18.579,18.579,0,0,1,7.549,5.372,21.435,21.435,0,0,1,4.974,20.385c-2.572,10-13.326,16.289-18.1,12.66" transform="translate(-1043.251 -1098.431)"/>
              <path id="Path_682" data-name="Path 682" class="cls-5" d="M1050.745,1105.929a4.39,4.39,0,1,0-6.206-.01A4.39,4.39,0,0,0,1050.745,1105.929Z" transform="translate(-1043.251 -1098.431)"/>
              <path id="Path_683" data-name="Path 683" class="cls-5" d="M1107.218,1162.4a4.4,4.4,0,1,0-6.205-.007A4.4,4.4,0,0,0,1107.218,1162.4Z" transform="translate(-1043.251 -1098.431)"/>
            </g>
          </g>
        </g>
      </g>
      <g id="Group_1538" data-name="Group 1538" transform="translate(2277.525 671.655)">
        <g id="Group_1537" data-name="Group 1537">
          <g id="Group_1536" data-name="Group 1536">
            <g id="Group_1535" data-name="Group 1535">
              <path id="Path_684" data-name="Path 684" class="cls-5" d="M1810.978,1139.2c-4.793,3.576-15.508-2.785-18.007-12.808a21.38,21.38,0,0,1,5.13-20.321,18.6,18.6,0,0,1,7.579-5.342,5.109,5.109,0,0,1,6.362,1.978c.1.109.141.232.183.272s0,.082-.01.009c-.074-.059-.133-.15-.307-.323-1.874-2.25-3.631-2.041-5.113-1.3-2.5,1.291-4.464,5.814-3.863,9.04.3,1.714.231,6.942,12.417,4.579,6.258-1.205,6.569,11.915-4.067,11.271-6.341-.368-9.992-6.852-9.992-6.852a11.116,11.116,0,0,0,6.02,7.1c9.1,3.3,8.13,9.354,3.668,12.7" transform="translate(-1758.026 -1098.432)"/>
              <path id="Path_685" data-name="Path 685" class="cls-5" d="M1799.747,1150.34c-3.393,4.447-9.463,5.388-12.682-3.766a11.025,11.025,0,0,0-7.05-6.058s6.485,3.692,6.79,10.011c.561,10.647-12.562,10.245-11.309,4.024,2.444-12.2-2.778-12.164-4.5-12.464-3.2-.629-7.746,1.3-9.055,3.787-.756,1.468-1,3.266,1.253,5.124.2.182.3.232.351.295.045.035.025.055-.014.027a2.358,2.358,0,0,1-.284-.183,5.1,5.1,0,0,1-1.918-6.372,18.565,18.565,0,0,1,5.372-7.55,21.442,21.442,0,0,1,20.385-4.975c10,2.571,16.289,13.326,12.66,18.1" transform="translate(-1758.026 -1098.432)"/>
              <path id="Path_686" data-name="Path 686" class="cls-5" d="M1765.523,1156.189a4.39,4.39,0,1,0-.009,6.208A4.39,4.39,0,0,0,1765.523,1156.189Z" transform="translate(-1758.026 -1098.432)"/>
              <path id="Path_687" data-name="Path 687" class="cls-5" d="M1822,1099.717a4.4,4.4,0,1,0-.008,6.2A4.4,4.4,0,0,0,1822,1099.717Z" transform="translate(-1758.026 -1098.432)"/>
            </g>
          </g>
        </g>
      </g>
      <g id="Group_1539" data-name="Group 1539" transform="translate(1041.804 141.395)">
        <line id="Line_55" data-name="Line 55" class="cls-6" y2="479.14" transform="translate(1305.965)"/>
        <line id="Line_56" data-name="Line 56" class="cls-6" y2="479.14"/>
      </g>
      <line id="Line_57" data-name="Line 57" class="cls-6" x1="1078.22" transform="translate(1157.572 26.867)"/>
      <line id="Line_58" data-name="Line 58" class="cls-6" x1="1078.221" transform="translate(1157.571 735.046)"/>
    </g>
  </g>
</svg>
